STARTFONT 2.1
FONT -Bitstream-Dutch 801-Medium-R-Normal--31-80-75-75-P-244-DEC-DECmath_Extension
SIZE 8 75 75
FONTBOUNDINGBOX 12 31 0 -25

STARTPROPERTIES 26
FONTNAME_REGISTRY ""
FAMILY_NAME "Dutch 801"
FOUNDRY "Bitstream"
WEIGHT_NAME "Medium"
SETWIDTH_NAME "Normal"
SLANT "R"
ADD_STYLE_NAME ""
PIXEL_SIZE 31
POINT_SIZE 80
RESOLUTION_X 75
RESOLUTION_Y 75
SPACING "P"
AVERAGE_WIDTH 244
CHARSET_REGISTRY "DEC"
CHARSET_ENCODING "DECmath_Extension"
CAP_HEIGHT 0
X_HEIGHT 0
CHARSET_COLLECTIONS "DEC-DECmath_Extension"
FULL_NAME "Dutch 801 Roman DECmath_Extension"
COPYRIGHT "Copyright 1989 by Bitstream, Inc. and Digital Equipment Corp. All rights reserved."
NOTICE "Dutch 801 is a registered trademark of Bitstream, Inc."
WEIGHT 10
QUAD_WIDTH 8
DEFAULT_CHAR 32
FONT_DESCENT 25
FONT_ASCENT 6
ENDPROPERTIES

CHARS 128

STARTCHAR parenlfs4
ENCODING 32
SWIDTH 792 0
DWIDTH 7 0
BBX 5 25 2 -25
BITMAP
08
10
20
20
40
40
40
40
80
80
80
80
80
80
80
80
80
40
40
40
40
20
20
10
08
ENDCHAR

STARTCHAR parenrts4
ENCODING 33
SWIDTH 792 0
DWIDTH 7 0
BBX 5 25 0 -25
BITMAP
80
40
20
20
10
10
10
10
08
08
08
08
08
08
08
08
08
10
10
10
10
20
20
40
80
ENDCHAR

STARTCHAR bracketlfs4
ENCODING 34
SWIDTH 583 0
DWIDTH 5 0
BBX 3 25 2 -25
BITMAP
E0
80
80
80
80
80
80
80
80
80
80
80
80
80
80
80
80
80
80
80
80
80
80
80
E0
ENDCHAR

STARTCHAR bracketrts4
ENCODING 35
SWIDTH 583 0
DWIDTH 5 0
BBX 3 25 0 -25
BITMAP
E0
20
20
20
20
20
20
20
20
20
20
20
20
20
20
20
20
20
20
20
20
20
20
20
E0
ENDCHAR

STARTCHAR bracketlfbts4
ENCODING 36
SWIDTH 639 0
DWIDTH 5 0
BBX 3 25 2 -25
BITMAP
80
80
80
80
80
80
80
80
80
80
80
80
80
80
80
80
80
80
80
80
80
80
80
80
E0
ENDCHAR

STARTCHAR bracketrtbts4
ENCODING 37
SWIDTH 639 0
DWIDTH 5 0
BBX 3 25 0 -25
BITMAP
20
20
20
20
20
20
20
20
20
20
20
20
20
20
20
20
20
20
20
20
20
20
20
20
E0
ENDCHAR

STARTCHAR bracketlftps4
ENCODING 38
SWIDTH 639 0
DWIDTH 5 0
BBX 3 25 2 -25
BITMAP
E0
80
80
80
80
80
80
80
80
80
80
80
80
80
80
80
80
80
80
80
80
80
80
80
80
ENDCHAR

STARTCHAR bracketrttps4
ENCODING 39
SWIDTH 639 0
DWIDTH 5 0
BBX 3 25 0 -25
BITMAP
E0
20
20
20
20
20
20
20
20
20
20
20
20
20
20
20
20
20
20
20
20
20
20
20
20
ENDCHAR

STARTCHAR bracelfs4
ENCODING 40
SWIDTH 833 0
DWIDTH 7 0
BBX 4 25 1 -25
BITMAP
10
20
20
20
20
20
20
20
20
20
20
40
80
40
20
20
20
20
20
20
20
20
20
20
10
ENDCHAR

STARTCHAR bracerts4
ENCODING 41
SWIDTH 833 0
DWIDTH 7 0
BBX 4 25 2 -25
BITMAP
80
40
40
40
40
40
40
40
40
40
40
20
10
20
40
40
40
40
40
40
40
40
40
40
80
ENDCHAR

STARTCHAR anglelfs4
ENCODING 42
SWIDTH 806 0
DWIDTH 7 0
BBX 5 25 1 -25
BITMAP
08
08
10
10
10
20
20
20
40
40
40
80
80
80
40
40
40
20
20
20
10
10
10
08
08
ENDCHAR

STARTCHAR anglerts4
ENCODING 43
SWIDTH 806 0
DWIDTH 7 0
BBX 5 25 1 -25
BITMAP
80
80
40
40
40
20
20
20
10
10
10
08
08
08
10
10
10
20
20
20
40
40
40
80
80
ENDCHAR

STARTCHAR slashs4
ENCODING 44
SWIDTH 1278 0
DWIDTH 11 0
BBX 10 25 1 -25
BITMAP
0040
0040
0080
0080
0080
0100
0100
0200
0200
0200
0400
0400
0800
0800
0800
1000
1000
1000
2000
2000
4000
4000
4000
8000
8000
ENDCHAR

STARTCHAR backslashs4
ENCODING 45
SWIDTH 1278 0
DWIDTH 11 0
BBX 10 25 1 -25
BITMAP
8000
8000
4000
4000
4000
2000
2000
1000
1000
1000
0800
0800
0400
0400
0400
0200
0200
0200
0100
0100
0080
0080
0080
0040
0040
ENDCHAR

STARTCHAR slash
ENCODING 46
SWIDTH 811 0
DWIDTH 7 0
BBX 6 15 1 -15
BITMAP
04
04
08
08
08
10
10
20
20
20
40
40
40
80
80
ENDCHAR

STARTCHAR backslash
ENCODING 47
SWIDTH 811 0
DWIDTH 7 0
BBX 6 15 1 -15
BITMAP
80
80
40
40
40
20
20
10
10
10
08
08
08
04
04
ENDCHAR

STARTCHAR parenlefttp
ENCODING 48
SWIDTH 875 0
DWIDTH 7 0
BBX 5 15 2 -15
BITMAP
08
10
20
20
40
40
40
40
80
80
80
80
80
80
80
ENDCHAR

STARTCHAR parenrighttp
ENCODING 49
SWIDTH 875 0
DWIDTH 7 0
BBX 5 15 0 -15
BITMAP
80
40
20
20
10
10
10
10
08
08
08
08
08
08
08
ENDCHAR

STARTCHAR bracketlefttp
ENCODING 50
SWIDTH 667 0
DWIDTH 6 0
BBX 3 15 3 -15
BITMAP
E0
80
80
80
80
80
80
80
80
80
80
80
80
80
80
ENDCHAR

STARTCHAR bracketrighttp
ENCODING 51
SWIDTH 667 0
DWIDTH 6 0
BBX 3 15 0 -15
BITMAP
E0
20
20
20
20
20
20
20
20
20
20
20
20
20
20
ENDCHAR

STARTCHAR bracketleftbt
ENCODING 52
SWIDTH 667 0
DWIDTH 6 0
BBX 3 15 3 -15
BITMAP
80
80
80
80
80
80
80
80
80
80
80
80
80
80
E0
ENDCHAR

STARTCHAR bracketrightbt
ENCODING 53
SWIDTH 667 0
DWIDTH 6 0
BBX 3 15 0 -15
BITMAP
20
20
20
20
20
20
20
20
20
20
20
20
20
20
E0
ENDCHAR

STARTCHAR bracketleftex
ENCODING 54
SWIDTH 667 0
DWIDTH 6 0
BBX 1 6 3 -6
BITMAP
80
80
80
80
80
80
ENDCHAR

STARTCHAR bracketrightex
ENCODING 55
SWIDTH 667 0
DWIDTH 6 0
BBX 1 6 2 -6
BITMAP
80
80
80
80
80
80
ENDCHAR

STARTCHAR bracelefttp
ENCODING 56
SWIDTH 889 0
DWIDTH 7 0
BBX 3 8 3 -8
BITMAP
20
40
80
80
80
80
80
80
ENDCHAR

STARTCHAR bracerighttp
ENCODING 57
SWIDTH 889 0
DWIDTH 7 0
BBX 3 8 1 -8
BITMAP
80
40
20
20
20
20
20
20
ENDCHAR

STARTCHAR braceleftbt
ENCODING 58
SWIDTH 889 0
DWIDTH 7 0
BBX 3 8 3 -8
BITMAP
80
80
80
80
80
80
40
20
ENDCHAR

STARTCHAR bracerightbt
ENCODING 59
SWIDTH 889 0
DWIDTH 7 0
BBX 3 8 1 -8
BITMAP
20
20
20
20
20
20
40
80
ENDCHAR

STARTCHAR braceleftmid
ENCODING 60
SWIDTH 889 0
DWIDTH 7 0
BBX 3 15 1 -15
BITMAP
20
20
20
20
20
20
40
80
40
20
20
20
20
20
20
ENDCHAR

STARTCHAR bracerightmid
ENCODING 61
SWIDTH 889 0
DWIDTH 7 0
BBX 3 15 3 -15
BITMAP
80
80
80
80
80
80
40
20
40
80
80
80
80
80
80
ENDCHAR

STARTCHAR braceex
ENCODING 62
SWIDTH 889 0
DWIDTH 7 0
BBX 1 3 3 -3
BITMAP
80
80
80
ENDCHAR

STARTCHAR arrowvertex
ENCODING 63
SWIDTH 667 0
DWIDTH 6 0
BBX 1 5 3 -5
BITMAP
80
80
80
80
80
ENDCHAR

STARTCHAR parenleftbtex
ENCODING 64
SWIDTH 875 0
DWIDTH 7 0
BBX 5 15 2 -15
BITMAP
80
80
80
80
80
80
80
40
40
40
40
20
20
10
08
ENDCHAR

STARTCHAR parenrightbtex
ENCODING 65
SWIDTH 875 0
DWIDTH 7 0
BBX 5 15 0 -15
BITMAP
08
08
08
08
08
08
08
10
10
10
10
20
20
40
80
ENDCHAR

STARTCHAR parenleftex
ENCODING 66
SWIDTH 875 0
DWIDTH 7 0
BBX 1 6 2 -6
BITMAP
80
80
80
80
80
80
ENDCHAR

STARTCHAR parenrightex
ENCODING 67
SWIDTH 875 0
DWIDTH 7 0
BBX 1 6 4 -6
BITMAP
80
80
80
80
80
80
ENDCHAR

STARTCHAR angleleft
ENCODING 68
SWIDTH 750 0
DWIDTH 6 0
BBX 4 20 1 -20
BITMAP
10
10
20
20
20
40
40
40
80
80
80
80
40
40
40
20
20
20
10
10
ENDCHAR

STARTCHAR angleright
ENCODING 69
SWIDTH 750 0
DWIDTH 6 0
BBX 4 20 1 -20
BITMAP
80
80
40
40
40
20
20
20
10
10
10
10
20
20
20
40
40
40
80
80
ENDCHAR

STARTCHAR unionsqr
ENCODING 70
SWIDTH 833 0
DWIDTH 7 0
BBX 6 8 1 -8
BITMAP
84
84
84
84
84
84
84
FC
ENDCHAR

STARTCHAR unionsqrdsp
ENCODING 71
SWIDTH 1111 0
DWIDTH 9 0
BBX 8 12 1 -12
BITMAP
81
81
81
81
81
81
81
81
81
81
81
FF
ENDCHAR

STARTCHAR integralcon
ENCODING 72
SWIDTH 472 0
DWIDTH 4 0
BBX 6 9 0 -9
BITMAP
08
14
10
30
48
30
20
A0
40
ENDCHAR

STARTCHAR integralcondsp
ENCODING 73
SWIDTH 556 0
DWIDTH 5 0
BBX 7 18 1 -18
BITMAP
04
0A
08
08
08
08
10
38
54
54
38
10
20
20
20
20
A0
40
ENDCHAR

STARTCHAR circledot
ENCODING 74
SWIDTH 1111 0
DWIDTH 9 0
BBX 7 7 1 -7
BITMAP
38
44
82
92
82
44
38
ENDCHAR

STARTCHAR circledotdsp
ENCODING 75
SWIDTH 1514 0
DWIDTH 13 0
BBX 11 11 1 -11
BITMAP
1F00
2080
4040
8020
8020
8420
8020
8020
4040
2080
1F00
ENDCHAR

STARTCHAR circleplus
ENCODING 76
SWIDTH 1111 0
DWIDTH 9 0
BBX 7 7 1 -7
BITMAP
38
54
92
FE
92
54
38
ENDCHAR

STARTCHAR circleplusdsp
ENCODING 77
SWIDTH 1514 0
DWIDTH 13 0
BBX 11 11 1 -11
BITMAP
1F00
2480
4440
8420
8420
FFE0
8420
8420
4440
2480
1F00
ENDCHAR

STARTCHAR circlemultiply
ENCODING 78
SWIDTH 1111 0
DWIDTH 9 0
BBX 7 7 1 -7
BITMAP
38
44
AA
92
AA
44
38
ENDCHAR

STARTCHAR circlemultdsp
ENCODING 79
SWIDTH 1514 0
DWIDTH 13 0
BBX 11 11 1 -11
BITMAP
1F00
2080
60C0
9120
8A20
8420
8A20
9120
60C0
2080
1F00
ENDCHAR

STARTCHAR summation
ENCODING 80
SWIDTH 1056 0
DWIDTH 9 0
BBX 8 9 1 -9
BITMAP
FF
81
40
20
10
20
40
81
FF
ENDCHAR

STARTCHAR product
ENCODING 81
SWIDTH 944 0
DWIDTH 8 0
BBX 7 9 1 -9
BITMAP
FE
44
44
44
44
44
44
44
EE
ENDCHAR

STARTCHAR integral
ENCODING 82
SWIDTH 472 0
DWIDTH 4 0
BBX 6 9 0 -9
BITMAP
08
14
10
10
20
20
20
A0
40
ENDCHAR

STARTCHAR union
ENCODING 83
SWIDTH 833 0
DWIDTH 7 0
BBX 6 8 1 -8
BITMAP
84
84
84
84
84
84
48
30
ENDCHAR

STARTCHAR intersection
ENCODING 84
SWIDTH 833 0
DWIDTH 7 0
BBX 6 8 1 -8
BITMAP
30
48
84
84
84
84
84
84
ENDCHAR

STARTCHAR unionmultiset
ENCODING 85
SWIDTH 833 0
DWIDTH 7 0
BBX 7 8 0 -8
BITMAP
82
82
92
BA
92
82
44
38
ENDCHAR

STARTCHAR logicalor
ENCODING 86
SWIDTH 833 0
DWIDTH 7 0
BBX 7 9 0 -9
BITMAP
10
10
28
28
44
44
44
82
82
ENDCHAR

STARTCHAR logicaland
ENCODING 87
SWIDTH 833 0
DWIDTH 7 0
BBX 7 9 0 -9
BITMAP
82
82
44
44
44
28
28
10
10
ENDCHAR

STARTCHAR summationdsp
ENCODING 88
SWIDTH 1444 0
DWIDTH 12 0
BBX 11 12 1 -12
BITMAP
FFE0
4020
2020
1000
0800
0400
0400
0800
1000
2020
4020
FFE0
ENDCHAR

STARTCHAR productdsp
ENCODING 89
SWIDTH 1278 0
DWIDTH 11 0
BBX 9 12 1 -12
BITMAP
FF80
4100
4100
4100
4100
4100
4100
4100
4100
4100
4100
E380
ENDCHAR

STARTCHAR integraldsp
ENCODING 90
SWIDTH 556 0
DWIDTH 5 0
BBX 7 18 1 -18
BITMAP
04
0A
08
08
08
08
10
10
10
10
10
10
20
20
20
20
A0
40
ENDCHAR

STARTCHAR uniondsp
ENCODING 91
SWIDTH 1111 0
DWIDTH 9 0
BBX 8 12 1 -12
BITMAP
81
81
81
81
81
81
81
81
81
81
42
3C
ENDCHAR

STARTCHAR intersectdsp
ENCODING 92
SWIDTH 1111 0
DWIDTH 9 0
BBX 8 12 1 -12
BITMAP
3C
42
81
81
81
81
81
81
81
81
81
81
ENDCHAR

STARTCHAR unionmultdsp
ENCODING 93
SWIDTH 1111 0
DWIDTH 9 0
BBX 9 12 0 -12
BITMAP
8080
8080
8080
8880
8880
BE80
8880
8880
8080
8080
4100
3E00
ENDCHAR

STARTCHAR logicalordsp
ENCODING 94
SWIDTH 1111 0
DWIDTH 9 0
BBX 9 12 0 -12
BITMAP
0800
0800
1400
1400
2200
2200
2200
4100
4100
4100
8080
8080
ENDCHAR

STARTCHAR logicalanddsp
ENCODING 95
SWIDTH 1111 0
DWIDTH 9 0
BBX 9 12 0 -12
BITMAP
8080
8080
4100
4100
4100
2200
2200
2200
1400
1400
0800
0800
ENDCHAR

STARTCHAR coproduct
ENCODING 96
SWIDTH 944 0
DWIDTH 8 0
BBX 7 9 1 -9
BITMAP
EE
44
44
44
44
44
44
44
FE
ENDCHAR

STARTCHAR coproductdsp
ENCODING 97
SWIDTH 1278 0
DWIDTH 11 0
BBX 9 12 1 -12
BITMAP
E380
4100
4100
4100
4100
4100
4100
4100
4100
4100
4100
FF80
ENDCHAR

STARTCHAR circumflex
ENCODING 98
SWIDTH 556 0
DWIDTH 5 0
BBX 5 2 0 4
BITMAP
20
D8
ENDCHAR

STARTCHAR circumflexwide
ENCODING 99
SWIDTH 1000 0
DWIDTH 8 0
BBX 8 2 0 4
BITMAP
18
E7
ENDCHAR

STARTCHAR circumflvrywid
ENCODING 100
SWIDTH 1444 0
DWIDTH 12 0
BBX 12 2 0 4
BITMAP
0F00
F0F0
ENDCHAR

STARTCHAR tilde
ENCODING 101
SWIDTH 556 0
DWIDTH 5 0
BBX 5 2 0 4
BITMAP
68
90
ENDCHAR

STARTCHAR tildewide
ENCODING 102
SWIDTH 1000 0
DWIDTH 8 0
BBX 8 2 0 4
BITMAP
71
8E
ENDCHAR

STARTCHAR tildevrywide
ENCODING 103
SWIDTH 1444 0
DWIDTH 12 0
BBX 12 2 0 4
BITMAP
7C10
83E0
ENDCHAR

STARTCHAR bracketlfs2
ENCODING 104
SWIDTH 472 0
DWIDTH 4 0
BBX 2 15 2 -15
BITMAP
C0
80
80
80
80
80
80
80
80
80
80
80
80
80
C0
ENDCHAR

STARTCHAR bracketrts2
ENCODING 105
SWIDTH 472 0
DWIDTH 4 0
BBX 2 15 0 -15
BITMAP
C0
40
40
40
40
40
40
40
40
40
40
40
40
40
C0
ENDCHAR

STARTCHAR bracketlfbts2
ENCODING 106
SWIDTH 528 0
DWIDTH 4 0
BBX 3 15 1 -15
BITMAP
80
80
80
80
80
80
80
80
80
80
80
80
80
80
E0
ENDCHAR

STARTCHAR bracketrtbts2
ENCODING 107
SWIDTH 528 0
DWIDTH 4 0
BBX 3 15 0 -15
BITMAP
20
20
20
20
20
20
20
20
20
20
20
20
20
20
E0
ENDCHAR

STARTCHAR bracketlftps2
ENCODING 108
SWIDTH 528 0
DWIDTH 4 0
BBX 3 15 1 -15
BITMAP
E0
80
80
80
80
80
80
80
80
80
80
80
80
80
80
ENDCHAR

STARTCHAR bracketrttps2
ENCODING 109
SWIDTH 528 0
DWIDTH 4 0
BBX 3 15 0 -15
BITMAP
E0
20
20
20
20
20
20
20
20
20
20
20
20
20
20
ENDCHAR

STARTCHAR bracelfs2
ENCODING 110
SWIDTH 667 0
DWIDTH 6 0
BBX 4 15 1 -15
BITMAP
10
20
20
20
20
20
40
80
40
20
20
20
20
20
10
ENDCHAR

STARTCHAR bracerts2
ENCODING 111
SWIDTH 667 0
DWIDTH 6 0
BBX 4 15 1 -15
BITMAP
80
40
40
40
40
40
20
10
20
40
40
40
40
40
80
ENDCHAR

STARTCHAR radicals1
ENCODING 112
SWIDTH 1000 0
DWIDTH 8 0
BBX 7 10 1 -10
BITMAP
02
02
04
04
08
48
D0
50
20
20
ENDCHAR

STARTCHAR radicals2
ENCODING 113
SWIDTH 1000 0
DWIDTH 8 0
BBX 8 15 0 -15
BITMAP
01
01
02
02
02
04
04
04
48
C8
48
50
30
20
20
ENDCHAR

STARTCHAR radicals3
ENCODING 114
SWIDTH 1000 0
DWIDTH 8 0
BBX 8 20 0 -20
BITMAP
01
01
01
01
02
02
02
02
02
04
44
C4
44
48
28
28
28
10
10
10
ENDCHAR

STARTCHAR radicals4
ENCODING 115
SWIDTH 1000 0
DWIDTH 8 0
BBX 8 25 0 -25
BITMAP
01
01
01
01
01
02
02
02
02
02
02
04
04
44
C4
44
48
28
28
28
28
10
10
10
10
ENDCHAR

STARTCHAR radicalbtex
ENCODING 116
SWIDTH 1056 0
DWIDTH 9 0
BBX 6 15 1 -15
BITMAP
04
04
44
C4
44
24
24
24
14
14
14
0C
0C
04
04
ENDCHAR

STARTCHAR radicalex
ENCODING 117
SWIDTH 1056 0
DWIDTH 9 0
BBX 1 6 6 -6
BITMAP
80
80
80
80
80
80
ENDCHAR

STARTCHAR radicaltpex
ENCODING 118
SWIDTH 1056 0
DWIDTH 9 0
BBX 3 6 6 -6
BITMAP
E0
80
80
80
80
80
ENDCHAR

STARTCHAR arrowdblvertex
ENCODING 119
SWIDTH 778 0
DWIDTH 6 0
BBX 3 5 2 -5
BITMAP
A0
A0
A0
A0
A0
ENDCHAR

STARTCHAR arrowupex
ENCODING 120
SWIDTH 667 0
DWIDTH 6 0
BBX 5 5 1 -5
BITMAP
20
70
A8
20
20
ENDCHAR

STARTCHAR arrowdownex
ENCODING 121
SWIDTH 667 0
DWIDTH 6 0
BBX 5 5 1 -5
BITMAP
20
20
A8
70
20
ENDCHAR

STARTCHAR bracehzlfdnex
ENCODING 122
SWIDTH 444 0
DWIDTH 4 0
BBX 4 3 0 -2
BITMAP
30
40
80
ENDCHAR

STARTCHAR bracehzrtdnex
ENCODING 123
SWIDTH 444 0
DWIDTH 4 0
BBX 4 3 0 -2
BITMAP
C0
20
10
ENDCHAR

STARTCHAR bracehzlfupex
ENCODING 124
SWIDTH 444 0
DWIDTH 4 0
BBX 4 3 0 0
BITMAP
80
40
30
ENDCHAR

STARTCHAR bracehzrtupex
ENCODING 125
SWIDTH 444 0
DWIDTH 4 0
BBX 4 3 0 0
BITMAP
10
20
C0
ENDCHAR

STARTCHAR arrowdblvttpex
ENCODING 126
SWIDTH 778 0
DWIDTH 6 0
BBX 5 5 1 -5
BITMAP
20
50
D8
50
50
ENDCHAR

STARTCHAR arrowdblvtbtex
ENCODING 127
SWIDTH 778 0
DWIDTH 6 0
BBX 5 5 1 -5
BITMAP
50
50
D8
50
20
ENDCHAR

STARTCHAR parenlefts1
ENCODING 160
SWIDTH 458 0
DWIDTH 4 0
BBX 3 10 1 -10
BITMAP
20
40
80
80
80
80
80
80
40
20
ENDCHAR

STARTCHAR parenrights1
ENCODING 161
SWIDTH 458 0
DWIDTH 4 0
BBX 3 10 0 -10
BITMAP
80
40
20
20
20
20
20
20
40
80
ENDCHAR

STARTCHAR bracketlfs1
ENCODING 162
SWIDTH 417 0
DWIDTH 3 0
BBX 2 10 1 -10
BITMAP
C0
80
80
80
80
80
80
80
80
C0
ENDCHAR

STARTCHAR bracketrts1
ENCODING 163
SWIDTH 417 0
DWIDTH 3 0
BBX 2 10 0 -10
BITMAP
C0
40
40
40
40
40
40
40
40
C0
ENDCHAR

STARTCHAR bracketlfbts1
ENCODING 164
SWIDTH 472 0
DWIDTH 4 0
BBX 3 10 1 -10
BITMAP
80
80
80
80
80
80
80
80
80
E0
ENDCHAR

STARTCHAR bracketrtbts1
ENCODING 165
SWIDTH 472 0
DWIDTH 4 0
BBX 3 10 0 -10
BITMAP
20
20
20
20
20
20
20
20
20
E0
ENDCHAR

STARTCHAR bracketlftps1
ENCODING 166
SWIDTH 472 0
DWIDTH 4 0
BBX 3 10 1 -10
BITMAP
E0
80
80
80
80
80
80
80
80
80
ENDCHAR

STARTCHAR bracketrttps1
ENCODING 167
SWIDTH 472 0
DWIDTH 4 0
BBX 3 10 0 -10
BITMAP
E0
20
20
20
20
20
20
20
20
20
ENDCHAR

STARTCHAR bracelfs1
ENCODING 168
SWIDTH 583 0
DWIDTH 5 0
BBX 3 10 1 -10
BITMAP
20
40
40
40
80
40
40
40
40
20
ENDCHAR

STARTCHAR bracerts1
ENCODING 169
SWIDTH 583 0
DWIDTH 5 0
BBX 3 10 1 -10
BITMAP
80
40
40
40
20
40
40
40
40
80
ENDCHAR

STARTCHAR anglelfs1
ENCODING 170
SWIDTH 472 0
DWIDTH 4 0
BBX 3 10 1 -10
BITMAP
20
20
40
40
80
80
40
40
20
20
ENDCHAR

STARTCHAR anglerts1
ENCODING 171
SWIDTH 472 0
DWIDTH 4 0
BBX 3 10 1 -10
BITMAP
80
80
40
40
20
20
40
40
80
80
ENDCHAR

STARTCHAR linevertex
ENCODING 172
SWIDTH 333 0
DWIDTH 3 0
BBX 1 5 1 -5
BITMAP
80
80
80
80
80
ENDCHAR

STARTCHAR linedblvertex
ENCODING 173
SWIDTH 556 0
DWIDTH 5 0
BBX 3 5 1 -5
BITMAP
A0
A0
A0
A0
A0
ENDCHAR

STARTCHAR slashs1
ENCODING 174
SWIDTH 583 0
DWIDTH 5 0
BBX 4 10 1 -10
BITMAP
10
10
20
20
20
40
40
40
80
80
ENDCHAR

STARTCHAR backslashs1
ENCODING 175
SWIDTH 583 0
DWIDTH 5 0
BBX 4 10 1 -10
BITMAP
80
80
40
40
40
20
20
20
10
10
ENDCHAR

STARTCHAR parenlfs2
ENCODING 176
SWIDTH 597 0
DWIDTH 5 0
BBX 4 15 1 -15
BITMAP
10
20
40
40
80
80
80
80
80
80
80
40
40
20
10
ENDCHAR

STARTCHAR parenrts2
ENCODING 177
SWIDTH 597 0
DWIDTH 5 0
BBX 4 15 0 -15
BITMAP
80
40
20
20
10
10
10
10
10
10
10
20
20
40
80
ENDCHAR

STARTCHAR parenlfs3
ENCODING 178
SWIDTH 736 0
DWIDTH 6 0
BBX 4 20 2 -20
BITMAP
10
20
20
40
40
40
80
80
80
80
80
80
80
80
40
40
40
20
20
10
ENDCHAR

STARTCHAR parenrts3
ENCODING 179
SWIDTH 736 0
DWIDTH 6 0
BBX 4 20 0 -20
BITMAP
80
40
40
20
20
20
10
10
10
10
10
10
10
10
20
20
20
40
40
80
ENDCHAR

STARTCHAR bracketlfs3
ENCODING 180
SWIDTH 528 0
DWIDTH 4 0
BBX 2 20 2 -20
BITMAP
C0
80
80
80
80
80
80
80
80
80
80
80
80
80
80
80
80
80
80
C0
ENDCHAR

STARTCHAR bracketrts3
ENCODING 181
SWIDTH 528 0
DWIDTH 4 0
BBX 2 20 0 -20
BITMAP
C0
40
40
40
40
40
40
40
40
40
40
40
40
40
40
40
40
40
40
C0
ENDCHAR

STARTCHAR bracketlfbts3
ENCODING 182
SWIDTH 583 0
DWIDTH 5 0
BBX 3 20 2 -20
BITMAP
80
80
80
80
80
80
80
80
80
80
80
80
80
80
80
80
80
80
80
E0
ENDCHAR

STARTCHAR bracketrtbts3
ENCODING 183
SWIDTH 583 0
DWIDTH 5 0
BBX 3 20 0 -20
BITMAP
20
20
20
20
20
20
20
20
20
20
20
20
20
20
20
20
20
20
20
E0
ENDCHAR

STARTCHAR bracketlftps3
ENCODING 184
SWIDTH 583 0
DWIDTH 5 0
BBX 3 20 2 -20
BITMAP
E0
80
80
80
80
80
80
80
80
80
80
80
80
80
80
80
80
80
80
80
ENDCHAR

STARTCHAR bracketrttps3
ENCODING 185
SWIDTH 583 0
DWIDTH 5 0
BBX 3 20 0 -20
BITMAP
E0
20
20
20
20
20
20
20
20
20
20
20
20
20
20
20
20
20
20
20
ENDCHAR

STARTCHAR bracelfs3
ENCODING 186
SWIDTH 750 0
DWIDTH 6 0
BBX 4 20 1 -20
BITMAP
10
20
20
20
20
20
20
20
40
80
40
20
20
20
20
20
20
20
20
10
ENDCHAR

STARTCHAR bracerts3
ENCODING 187
SWIDTH 750 0
DWIDTH 6 0
BBX 4 20 1 -20
BITMAP
80
40
40
40
40
40
40
40
20
10
20
40
40
40
40
40
40
40
40
80
ENDCHAR

STARTCHAR anglelfs3
ENCODING 188
SWIDTH 611 0
DWIDTH 5 0
BBX 4 15 1 -15
BITMAP
10
10
20
20
40
40
80
80
80
40
40
20
20
10
10
ENDCHAR

STARTCHAR anglerts3
ENCODING 189
SWIDTH 611 0
DWIDTH 5 0
BBX 4 15 1 -15
BITMAP
80
80
40
40
20
20
10
10
10
20
20
40
40
80
80
ENDCHAR

STARTCHAR slashs3
ENCODING 190
SWIDTH 1044 0
DWIDTH 9 0
BBX 8 20 1 -20
BITMAP
01
01
02
02
02
04
04
08
08
08
10
10
10
20
20
40
40
40
80
80
ENDCHAR

STARTCHAR backslashs3
ENCODING 191
SWIDTH 1044 0
DWIDTH 9 0
BBX 8 20 1 -20
BITMAP
80
80
40
40
40
20
20
10
10
10
08
08
08
04
04
02
02
02
01
01
ENDCHAR
ENDFONT
